<svg version="1.0" xmlns="http://www.w3.org/2000/svg" width="933.333" height="933.333" viewBox="0 0 700.000000 700.000000"><path d="M27 239.4c-5.3 1.7-7.7 7.2-8 18.3-.1 4.8-.4 11.5-.5 14.8-.3 7.8-1.7 48.6-2 59.4l-.2 8.4-3.4 1.6c-1.8.9-3.9 2.6-4.5 3.9-1.5 3-1.6 74.2-.1 78.6.5 1.7 2.2 4.8 3.6 6.8 4.7 6.6 6.1 6.8 60.1 6.7h47.5l-.2-9.4c-.1-7 .3-10.9 1.7-14.9 6.4-18.7 23.1-30 42.9-29.2 11.3.5 19.2 3.8 27.3 11.4 9.5 8.8 14.5 21.6 13.5 34.7l-.5 7.4h257.9l-.4-6.4c-.8-13.9 3.5-25.9 12.6-35 21.2-20.9 56.8-14.4 69.2 12.7 3.3 7.1 4.3 12.8 3.8 21.6-.3 7.1-.3 7.2 1.9 6.7 5.7-1.3 12.5-2.7 14.8-3.1 1.4-.3 10.4-2 20-3.9 21.9-4.3 43.7-8.5 47-9.1 1.4-.2 4.8-.9 7.5-1.4 2.8-.5 6.1-1.2 7.5-1.4 1.4-.2 7.2-1.4 13-2.5s11.9-2.3 13.5-2.6c1.7-.3 4.1-.7 5.5-1 1.4-.3 5.2-1.1 8.5-1.8l6-1.3v-67.9c0-64.9-.1-68.2-1.9-73-6.1-15.7-18.3-26.9-32.1-29.4-7.7-1.4-627.2-1.1-631.5.3zm58.3 33.5c1 .1 3.2 1.4 4.8 3l2.9 2.9v65.9c0 65.5 0 65.9-2.1 68.2-3.2 3.4-5.3 3.8-20.8 3.6l-14.4-.1-2.9-3.2-2.8-3.3.2-65.9.3-65.9 2.2-2.2c1.2-1.2 3.8-2.5 5.9-2.8 3-.5 16.7-.6 26.7-.2zm154.5 1.8c1.5 1.1 3 3.1 3.3 4.4 1.1 3.9 1 44.3-.1 47.5-2.1 5.9-.7 5.8-57.7 5.9-28.7 0-53.6-.3-55.2-.8-6.1-1.5-6.5-3.6-6.6-28.1-.1-12.2.3-23.3.8-24.8 1.1-3.5 4.4-5.6 9.3-6 2.1-.2 26.3-.2 53.7-.2 47.9.2 50 .2 52.5 2.1zm136.5-1.8c2.9.1 4.6.8 6.8 3l2.9 2.9V326l-2.9 3.2-2.9 3.3h-52.9c-29.6.1-54-.3-55.6-.8-5.7-1.9-6.1-3.8-6.2-28.6-.2-24.1.3-26.6 4.7-28.9 1.2-.6 3.9-1.3 5.8-1.4 2.8-.2 83.1-.1 100.3.1zm141.5 0c2.3.1 4.3 1 6.3 3l2.9 2.9v23.1c0 15-.4 23.9-1.1 25.5-2.4 5.1-2.7 5.1-59.6 5.1-48.6 0-53.1-.2-55.6-1.8-1.4-.9-3-3.1-3.4-4.7-.7-2.4-.9-27.5-.4-44.1.1-4.5 4-8.7 8.4-9.1 2.5-.2 85.8-.1 102.5.1zm133.8 2.6c3 1.5 6.9 4.4 8.8 6.7 5.6 6.5 6.6 11 6.6 28.7 0 17.2-.6 18.9-6.5 20.8-4.8 1.5-105.5 1-108.2-.5-4.6-2.6-5.1-5.1-4.9-29.2.1-19.8.3-22.9 1.9-25.3 2.8-4.3 1.5-4.2 54.1-4l42.9.2 5.3 2.6z"/><path d="M154 393.5c-17.2 4.4-28.4 20.1-26.5 36.9 2.7 23.9 27.4 38 48.8 27.8 21.5-10.2 26.9-36.7 11-54.3-8.3-9.2-21.8-13.4-33.3-10.4zm16 18.7c9.7 5.2 11.8 18.6 4.2 26.6-9.1 9.6-24.9 5.8-28.6-6.9-4.3-14.6 11-26.9 24.4-19.7zM498 393.2c-11.1 1.9-20.9 10.1-25.5 21.4-3.2 7.8-3 19.5.4 26.6 5.7 11.9 17 19.6 29.5 20.2 14.8.7 26.8-6.4 33.2-19.8 3-6.3 3.3-7.6 3.1-15-.3-10-3.4-17.4-10-24-8.3-8.3-18.6-11.4-30.7-9.4zm13.3 18.2c6.5 2.7 11.6 11.9 10.1 18.3-1.2 5.2-4.6 10.1-8.6 12.3-14.7 8.2-31.1-7.9-23.3-23 3.9-7.6 13.7-11 21.8-7.6z"/></svg>