<?xml version="1.0" encoding="UTF-8" standalone="no"?>
<svg
   xmlns:dc="http://purl.org/dc/elements/1.1/"
   xmlns:cc="http://creativecommons.org/ns#"
   xmlns:rdf="http://www.w3.org/1999/02/22-rdf-syntax-ns#"
   xmlns:svg="http://www.w3.org/2000/svg"
   xmlns="http://www.w3.org/2000/svg"
   id="svg2365"
   version="1.1"
   viewBox="0 0 64.558333 21.695834"
   height="82"
   width="244">
  <defs
     id="defs2359" />
  <metadata
     id="metadata2362">
    <rdf:RDF>
      <cc:Work
         rdf:about="">
        <dc:format>image/svg+xml</dc:format>
        <dc:type
           rdf:resource="http://purl.org/dc/dcmitype/StillImage" />
        <dc:title></dc:title>
      </cc:Work>
    </rdf:RDF>
  </metadata>
  <g
     transform="translate(0.37656869,-256.60205)"
     id="layer1">
    <path
       transform="matrix(0.26458334,0,0,0.26458334,-0.37656869,256.60205)"
       id="path1021"
       d="m 55.822266,56.150391 c -6.724003,0 -12.173828,5.451926 -12.173828,12.175781 C 43.648437,75.04912 49.098263,80.5 55.822266,80.5 c 6.723465,0 12.173828,-5.45088 12.173828,-12.173828 0,-6.723855 -5.450363,-12.175781 -12.173828,-12.175781 z m 0,6.121093 c 3.344265,0 6.054687,2.709352 6.054687,6.054688 0,3.344277 -2.710422,6.05664 -6.054687,6.05664 -3.345336,0 -6.056641,-2.712363 -6.056641,-6.05664 0,-3.345336 2.711305,-6.054688 6.056641,-6.054688 z"
       style="fill:#ffffff;fill-opacity:1;fill-rule:nonzero;stroke:none;stroke-width:0.13333334" />
    <path
       transform="matrix(0.26458334,0,0,0.26458334,-0.37656869,256.60205)"
       id="path1023"
       d="m 176.25195,56.150391 c -6.724,0 -12.17578,5.451926 -12.17578,12.175781 0,6.722948 5.45178,12.173828 12.17578,12.173828 6.72401,0 12.17383,-5.45088 12.17383,-12.173828 0,-6.723855 -5.44982,-12.175781 -12.17383,-12.175781 z m 0,6.121093 c 3.34535,0 6.05664,2.709352 6.05664,6.054688 0,3.344277 -2.71129,6.05664 -6.05664,6.05664 -3.34399,0 -6.05468,-2.712363 -6.05468,-6.05664 0,-3.345336 2.71069,-6.054688 6.05468,-6.054688 z"
       style="fill:#ffffff;fill-opacity:1;fill-rule:nonzero;stroke:none;stroke-width:0.13333334" />
    <path
       transform="matrix(0.26458334,0,0,0.26458334,-0.37656869,256.60205)"
       id="path1025"
       d="M 10.179688,1.9453125 C 9.314656,1.9006891 5.843612,2.0490558 5.671875,7.2617188 L 4.6113281,38.052734 c 0,0 -3.1113281,0.263681 -3.1113281,2.91211 v 24.039062 c 0,0 -0.1327625,7.083985 6.6875,7.083985 h 32.931641 c -0.306255,-1.198375 -0.46875,-2.466929 -0.46875,-3.761719 0,-8.378646 6.792673,-15.171875 15.171875,-15.171875 8.378131,0 15.169922,6.793229 15.169922,15.171875 0,1.301594 -0.164247,2.556541 -0.472657,3.761719 h 91.029299 c -0.30533,-1.198375 -0.4668,-2.466929 -0.4668,-3.761719 0,-8.378646 6.7926,-15.171875 15.16992,-15.171875 8.37868,0 15.16993,6.793229 15.16993,15.171875 -10e-6,1.301594 -0.16198,2.556541 -0.47266,3.761719 L 242.4043,62.15625 V 16.664062 c 0,-5.430651 -5.09877,-14.7011714 -14.63477,-14.7011714 H 10.373047 c 0,0 -0.06978,-0.011203 -0.193359,-0.017578 z M 19.84375,14.080078 h 8.5 c 1.828668,0 3.310547,1.483171 3.310547,3.3125 v 43.923828 c 0,1.82812 -1.481879,3.3125 -3.310547,3.3125 h -8.5 c -1.829201,0 -3.3125,-1.48438 -3.3125,-3.3125 V 17.392578 c 0,-1.829329 1.483299,-3.3125 3.3125,-3.3125 z m 25.791016,0 h 35.724609 c 1.829333,0 3.310547,1.483171 3.310547,3.3125 v 14.369141 c 0,1.829178 -1.481214,3.310547 -3.310547,3.310547 H 45.634766 c -1.828532,0 -3.310547,-1.481369 -3.310547,-3.310547 V 17.392578 c 0,-1.829329 1.482015,-3.3125 3.310547,-3.3125 z m 49.929687,0 h 35.724607 c 1.82933,0 3.3125,1.483171 3.3125,3.3125 v 14.369141 c 0,1.829178 -1.48317,3.310547 -3.3125,3.310547 H 95.564453 c -1.828002,0 -3.310547,-1.481369 -3.310547,-3.310547 V 17.392578 c 0,-1.829329 1.482545,-3.3125 3.310547,-3.3125 z m 49.595707,0 h 35.72851 c 1.828,0 3.31055,1.483171 3.31055,3.3125 v 14.369141 c 0,1.829178 -1.48255,3.310547 -3.31055,3.310547 h -35.72851 c -1.828,0 -3.31055,-1.481369 -3.31055,-3.310547 V 17.392578 c 0,-1.829329 1.48255,-3.3125 3.31055,-3.3125 z m 49.46679,0 h 29.46875 c 5.02134,0 9.32618,4.215264 9.32618,9.501953 v 8.179688 c 0,1.829178 -1.48255,3.310547 -3.31055,3.310547 h -35.48438 c -1.828,0 -3.31054,-1.481369 -3.31054,-3.310547 V 17.392578 c 0,-1.829329 1.48254,-3.3125 3.31054,-3.3125 z"
       style="fill:#ffffff;fill-opacity:1;fill-rule:nonzero;stroke:none;stroke-width:0.13333334" />
  </g>
</svg>
