<svg width="24" height="24" version="1.1" viewBox="0 0 6.35 6.35" xmlns="http://www.w3.org/2000/svg"><g transform="translate(.8365 -274)"><path d="m2.301 275.6c-0.04922 0-0.08912 0.0399-0.08912 0.0891v0.1105l-0.5274 0.3671 0.5133 0.3654h-0.4194s-0.04725-7e-3 -0.0975 0.0421l-0.0621 0.0625h-2.048s-0.1315-2e-3 -0.1662 0.1365l-0.1754 0.6996v0.9388h0.5224v0.1011h0.3087s0.01277 0.2058 0.2155 0.2058c0.2028 0 0.2155-0.2058 0.2155-0.2058h0.2904s0.01278 0.2058 0.2155 0.2058c0.2027 0 0.2155-0.2058 0.2155-0.2058h2.25s0.01277 0.2058 0.2155 0.2058c0.2027 0 0.2155-0.2058 0.2155-0.2058h0.2904s0.01275 0.2058 0.2155 0.2058c0.2028 0 0.2155-0.2058 0.2155-0.2058h0.3087v-0.1011h0.5224v-0.9388l-0.1754-0.6996c-0.03469-0.1388-0.1662-0.1365-0.1662-0.1365h-2.048l-0.0621-0.0625c-0.05021-0.049-0.0975-0.0421-0.0975-0.0421h-0.4194l0.5133-0.3654-0.5273-0.3671v-0.1105c0-0.0491-0.0399-0.0891-0.08912-0.0891zm0.03745 0.2088 0.5133 0.358-0.5133 0.3654-0.5133-0.3654zm-2.527 1.087c0.04841 0 0.08771 0.0393 0.08771 0.0876v0.4c0 0.0484-0.0393 0.0876-0.08771 0.0876h-0.2569c-0.04841 0-0.08766-0.0393-0.08766-0.0876l0.1041-0.4c2e-8 0 0.009919-0.0856 0.08982-0.0856zm0.3405 0h0.2394c0.04844 0 0.08771 0.0393 0.08771 0.0876v1.235c0 0.0484-0.03927 0.0876-0.08771 0.0876h-0.2394c-0.04843 0-0.08766-0.0393-0.08766-0.0876v-1.235c0-0.0484 0.03923-0.0876 0.08766-0.0876zm0.5205 0h0.2394c0.04842 0 0.08766 0.0393 0.08766 0.0876v1.235c0 0.0484-0.03924 0.0876-0.08766 0.0876h-0.2394c-0.04841 0-0.08771-0.0393-0.08771-0.0876v-1.235c0-0.0484 0.0393-0.0876 0.08771-0.0876zm0.5447 0h0.5466c0.04843 0 0.08766 0.0393 0.08766 0.0876v0.4c0 0.0484-0.03923 0.0876-0.08766 0.0876h-0.5466c-0.04843 0-0.08766-0.0393-0.08766-0.0876v-0.4c0-0.0484 0.03923-0.0876 0.08766-0.0876zm0.848 0h0.5461c0.04843 0 0.08771 0.0393 0.08771 0.0876v0.4c0 0.0484-0.03928 0.0876-0.08771 0.0876h-0.5461c-0.04843 0-0.08766-0.0393-0.08766-0.0876v-0.4c0-0.0484 0.03923-0.0876 0.08766-0.0876zm0.8475 0h0.5466c0.0484 0 0.08766 0.0393 0.08766 0.0876v0.4c0 0.0484-0.03926 0.0876-0.08766 0.0876h-0.5466c-0.0484 0-0.08761-0.0393-0.08761-0.0876v-0.4c0-0.0484 0.03922-0.0876 0.08761-0.0876zm0.8521 0h0.2393c0.04846 0 0.08771 0.0393 0.08771 0.0876v1.235c0 0.0484-0.03925 0.0876-0.08771 0.0876h-0.2393c-0.04846 0-0.08771-0.0393-0.08771-0.0876v-1.235c0-0.0484 0.03925-0.0876 0.08771-0.0876zm0.5204 0h0.2394c0.04846 0 0.08771 0.0393 0.08771 0.0876v1.235c0 0.0484-0.03925 0.0876-0.08771 0.0876h-0.2394c-0.0484 0-0.08766-0.0393-0.08766-0.0876v-1.235c0-0.0484 0.03926-0.0876 0.08766-0.0876zm0.5799 0 0.1506 2e-3c0.07993 0 0.08987 0.0856 0.08987 0.0856l0.1041 0.4c0 0.0484-0.03923 0.0876-0.08766 0.0876h-0.2569c-0.04843 0-0.08766-0.0393-0.08766-0.0876v-0.4c0-0.0484 0.03923-0.0877 0.08766-0.0877z"/></g></svg>
