<?xml version="1.0" encoding="UTF-8" standalone="no"?>
<svg
   xmlns:dc="http://purl.org/dc/elements/1.1/"
   xmlns:cc="http://creativecommons.org/ns#"
   xmlns:rdf="http://www.w3.org/1999/02/22-rdf-syntax-ns#"
   xmlns:svg="http://www.w3.org/2000/svg"
   xmlns="http://www.w3.org/2000/svg"
   id="svg1769"
   version="1.1"
   viewBox="0 0 64.558334 32.808337"
   height="124"
   width="244">
  <defs
     id="defs1763" />
  <metadata
     id="metadata1766">
    <rdf:RDF>
      <cc:Work
         rdf:about="">
        <dc:format>image/svg+xml</dc:format>
        <dc:type
           rdf:resource="http://purl.org/dc/dcmitype/StillImage" />
        <dc:title></dc:title>
      </cc:Work>
    </rdf:RDF>
  </metadata>
  <g
     transform="translate(0.83645254,-247.50705)"
     id="layer1">
    <path
       transform="matrix(0.26458335,0,0,0.26458335,-0.83645254,247.50705)"
       id="path1041"
       d="m 120.48438,1.6835938 c -1.91468,0 -3.4668,1.5521261 -3.4668,3.4667968 V 9.4492188 L 96.501953,23.730469 116.46875,37.943359 h -16.31641 c 0,0 -1.838296,-0.274651 -3.792965,1.634766 l -2.416016,2.433594 H 14.289062 c 0,0 -5.1163977,-0.09081 -6.4667964,5.310547 L 1,74.539062 v 36.521488 h 20.322266 v 3.93359 h 12.009765 c 0,0 0.496763,8.00586 8.384766,8.00586 7.887598,0 8.384765,-8.00586 8.384765,-8.00586 h 11.298829 c 0,0 0.4973,8.00586 8.384765,8.00586 7.887065,0 8.382813,-8.00586 8.382813,-8.00586 h 87.544921 c 0,0 0.49676,8.00586 8.38477,8.00586 7.88666,0 8.38476,-8.00586 8.38476,-8.00586 h 11.29883 c 0,0 0.49617,8.00586 8.38281,8.00586 7.88803,0 8.38477,-8.00586 8.38477,-8.00586 h 12.00976 v -3.93359 h 20.32227 V 74.539062 l -6.82227,-27.216796 c -1.34933,-5.401323 -6.46484,-5.310547 -6.46484,-5.310547 H 149.9375 l -2.41602,-2.433594 c -1.95333,-1.909304 -3.79296,-1.634766 -3.79296,-1.634766 H 127.41211 L 147.37891,23.730469 126.86523,9.4492188 V 5.1503906 c 0,-1.9146707 -1.55213,-3.4667968 -3.46679,-3.4667968 z m 1.45703,8.1210937 19.96679,13.9257815 -19.96679,14.21289 -19.96875,-14.21289 z M 23.640625,52.083984 c 1.883335,0 3.412109,1.526176 3.412109,3.410157 v 15.5625 c 0,1.884018 -1.528774,3.410156 -3.412109,3.410156 h -9.992187 c -1.883335,0 -3.410157,-1.526138 -3.410157,-3.410156 l 4.050781,-15.5625 c 1e-6,0 0.385873,-3.326172 3.494141,-3.326172 z m 13.248047,0 h 9.3125 c 1.884397,0 3.412109,1.526176 3.412109,3.410157 V 103.5293 c 0,1.88398 -1.527712,3.41015 -3.412109,3.41015 h -9.3125 c -1.883868,0 -3.410156,-1.52617 -3.410156,-3.41015 V 55.494141 c 0,-1.883981 1.526288,-3.410157 3.410156,-3.410157 z m 20.248047,0 h 9.3125 c 1.883731,0 3.410156,1.526176 3.410156,3.410157 V 103.5293 c 0,1.88398 -1.526425,3.41015 -3.410156,3.41015 h -9.3125 c -1.883335,0 -3.41211,-1.52617 -3.41211,-3.41015 V 55.494141 c 0,-1.883981 1.528775,-3.410157 3.41211,-3.410157 z m 21.191406,0 H 99.59375 c 1.884,0 3.41016,1.526176 3.41016,3.410157 v 15.5625 c 0,1.884018 -1.52616,3.410156 -3.41016,3.410156 H 78.328125 c -1.884,0 -3.410156,-1.526138 -3.410156,-3.410156 v -15.5625 c 0,-1.883981 1.526156,-3.410157 3.410156,-3.410157 z m 32.990235,0 h 21.24414 c 1.884,0 3.41211,1.526176 3.41211,3.410157 v 15.5625 c 0,1.884018 -1.52811,3.410156 -3.41211,3.410156 h -21.24414 c -1.884,0 -3.41016,-1.526138 -3.41016,-3.410156 v -15.5625 c 0,-1.883981 1.52616,-3.410157 3.41016,-3.410157 z m 32.96875,0 h 21.26562 c 1.88266,0 3.41016,1.526176 3.41016,3.410157 v 15.5625 c 0,1.884018 -1.5275,3.410156 -3.41016,3.410156 h -21.26562 c -1.88266,0 -3.4082,-1.526138 -3.4082,-3.410156 v -15.5625 c 0,-1.883981 1.52554,-3.410157 3.4082,-3.410157 z m 33.14648,0 h 9.31055 c 1.88533,0 3.41211,1.526176 3.41211,3.410157 V 103.5293 c 0,1.88398 -1.52678,3.41015 -3.41211,3.41015 h -9.31055 c -1.88534,0 -3.41211,-1.52617 -3.41211,-3.41015 V 55.494141 c 0,-1.883981 1.52677,-3.410157 3.41211,-3.410157 z m 20.2461,0 h 9.3125 c 1.88534,0 3.41211,1.526176 3.41211,3.410157 V 103.5293 c 0,1.88398 -1.52677,3.41015 -3.41211,3.41015 h -9.3125 c -1.88266,0 -3.41016,-1.52617 -3.41016,-3.41015 V 55.494141 c 0,-1.883981 1.5275,-3.410157 3.41016,-3.410157 z m 22.56054,0 5.85743,0.08398 c 3.1093,0 3.49609,3.326172 3.49609,3.326172 l 4.04883,15.5625 c 0,1.884018 -1.52618,3.410156 -3.41016,3.410156 h -9.99219 c -1.88398,0 -3.41015,-1.526138 -3.41015,-3.410156 v -15.5625 c 0,-1.883981 1.52617,-3.410157 3.41015,-3.410157 z"
       style="fill:#000000;fill-opacity:1;fill-rule:nonzero;stroke:none;stroke-width:0.13333334" />
  </g>
</svg>
