<svg width="24" height="24" version="1.1" viewBox="0 0 6.35 6.35" xmlns="http://www.w3.org/2000/svg"><g transform="translate(.3766 -271.9)"><path d="m1.092 275.5c-.1735 0-.3142.1407-.3142.3143 0 .1735.1407.3142.3142.3142.1735 0 .3142-.1407.3142-.3142 0-.1736-.1407-.3143-.3142-.3143zm0 .158c.08631 0 .1563.0699.1563.1563 0 .0863-.06995.1563-.1563.1563-.08634 0-.1563-.07-.1563-.1563 0-.0864.06998-.1563.1563-.1563z"/><path d="m4.2 275.5c-.1735 0-.3143.1407-.3143.3143 0 .1735.1407.3142.3143.3142.1735 0 .3142-.1407.3142-.3142 0-.1736-.1407-.3143-.3142-.3143zm0 .158c.08634 0 .1563.0699.1563.1563 0 .0863-.06998.1563-.1563.1563-.08631 0-.1563-.07-.1563-.1563 0-.0864.06996-.1563.1563-.1563z"/><path d="m-.0864 274.1c-.02233-.001-.1119.002-.1163.1372l-.02737.7947s-.0803.006-.0803.0752v.6204s-.003469.1828.1726.1828h.85c-.007912-.0309-.0121-.0636-.0121-.0971 0-.2163.1753-.3916.3916-.3916.2162 0 .3915.1753.3915.3916 0 .0336-.00422.066-.01219.0971h2.349c-.00792-.0309-.01205-.0636-.01205-.0971 0-.2163.1753-.3916.3915-.3916.2163 0 .3915.1753.3915.3916 0 .0336-.00422.066-.0122.0971l1.328-.2563v-1.174c0-.1402-.1316-.3794-.3777-.3794h-5.611s-.001843-.00028-.004986-.00046zm.2494.3132h.2194c.0472 0 .08544.0382.08544.0855v1.134c0 .0471-.03825.0855-.08544.0855h-.2194c-.04721 0-.0855-.0382-.0855-.0855v-1.134c0-.0473.03828-.0855.0855-.0855zm.6657 0h.922c.04721 0 .08544.0382.08544.0855v.3709c0 .0472-.03823.0854-.08544.0854h-.922c-.04719 0-.08544-.0382-.08544-.0854v-.3709c0-.0473.03825-.0855.08544-.0855zm1.289 0h.922c.04721 0 .0855.0382.0855.0855v.3709c0 .0472-.03828.0854-.0855.0854h-.922c-.04718 0-.08544-.0382-.08544-.0854v-.3709c0-.0473.03826-.0855.08544-.0855zm1.28 0h.9221c.04718 0 .08544.0382.08544.0855v.3709c0 .0472-.03826.0854-.08544.0854h-.9221c-.04718 0-.08544-.0382-.08544-.0854v-.3709c0-.0473.03826-.0855.08544-.0855zm1.277 0h.7606c.1296 0 .2407.1088.2407.2452v.2111c0 .0472-.03826.0854-.08544.0854h-.9158c-.04718 0-.08544-.0382-.08544-.0854v-.3709c0-.0473.03826-.0855.08544-.0855z"/></g></svg>
