<?xml version="1.0" encoding="UTF-8" standalone="no"?>
<!-- Created with Inkscape (http://www.inkscape.org/) -->

<svg
   xmlns:dc="http://purl.org/dc/elements/1.1/"
   xmlns:cc="http://creativecommons.org/ns#"
   xmlns:rdf="http://www.w3.org/1999/02/22-rdf-syntax-ns#"
   xmlns:svg="http://www.w3.org/2000/svg"
   xmlns="http://www.w3.org/2000/svg"
   xmlns:sodipodi="http://sodipodi.sourceforge.net/DTD/sodipodi-0.dtd"
   xmlns:inkscape="http://www.inkscape.org/namespaces/inkscape"
   width="24"
   height="24"
   viewBox="0 0 6.3499999 6.3500002"
   version="1.1"
   id="svg2365"
   inkscape:version="0.92.4 5da689c313, 2019-01-14"
   sodipodi:docname="bus-working.svg">
  <defs
     id="defs2359" />
  <sodipodi:namedview
     id="base"
     pagecolor="#ffffff"
     bordercolor="#666666"
     borderopacity="1.0"
     inkscape:pageopacity="0.0"
     inkscape:pageshadow="2"
     inkscape:zoom="25.59375"
     inkscape:cx="7.6556078"
     inkscape:cy="12.270225"
     inkscape:document-units="px"
     inkscape:current-layer="layer1"
     showgrid="false"
     units="px"
     width="240px"
     fit-margin-top="1"
     fit-margin-left="1"
     fit-margin-bottom="1"
     fit-margin-right="1"
     inkscape:window-width="2560"
     inkscape:window-height="1359"
     inkscape:window-x="0"
     inkscape:window-y="0"
     inkscape:window-maximized="1" />
  <metadata
     id="metadata2362">
    <rdf:RDF>
      <cc:Work
         rdf:about="">
        <dc:format>image/svg+xml</dc:format>
        <dc:type
           rdf:resource="http://purl.org/dc/dcmitype/StillImage" />
        <dc:title></dc:title>
      </cc:Work>
    </rdf:RDF>
  </metadata>
  <g
     inkscape:label="Layer 1"
     inkscape:groupmode="layer"
     id="layer1"
     transform="translate(0.37656869,-271.94788)">
    <path
       style="fill:#000000;fill-opacity:1;fill-rule:nonzero;stroke:none;stroke-width:0.00344132"
       d="m 1.0916288,275.50816 c -0.17354522,0 -0.31420446,0.14072 -0.31420446,0.31427 0,0.17351 0.14065924,0.3142 0.31420446,0.3142 0.1735322,0 0.3142045,-0.14069 0.3142045,-0.3142 0,-0.17355 -0.1406723,-0.31427 -0.3142045,-0.31427 z m 0,0.15799 c 0.08631,0 0.1562704,0.0699 0.1562704,0.15628 0,0.0863 -0.069953,0.15631 -0.1562704,0.15631 -0.086342,0 -0.15632131,-0.07 -0.15632131,-0.15631 0,-0.0864 0.0699752,-0.15628 0.15632131,-0.15628 z"
       id="path1021"
       inkscape:connector-curvature="0" />
    <path
       style="fill:#000000;fill-opacity:1;fill-rule:nonzero;stroke:none;stroke-width:0.00344132"
       d="m 4.1999017,275.50816 c -0.1735452,0 -0.3142554,0.14072 -0.3142554,0.31427 0,0.17351 0.1407102,0.3142 0.3142554,0.3142 0.1735463,0 0.3142045,-0.14069 0.3142045,-0.3142 0,-0.17355 -0.1406582,-0.31427 -0.3142045,-0.31427 z m 0,0.15799 c 0.086342,0 0.1563213,0.0699 0.1563213,0.15628 0,0.0863 -0.069975,0.15631 -0.1563213,0.15631 -0.08631,0 -0.1562703,-0.07 -0.1562703,-0.15631 0,-0.0864 0.069964,-0.15628 0.1562703,-0.15628 z"
       id="path1023"
       inkscape:connector-curvature="0" />
    <path
       style="fill:#000000;fill-opacity:1;fill-rule:nonzero;stroke:none;stroke-width:0.00344132"
       d="m -0.08639969,274.10914 c -0.02232789,-0.001 -0.1119137,0.002 -0.11634568,0.13721 l -0.027368,0.79471 c 0,0 -0.0803045,0.006 -0.0803045,0.0752 v 0.62044 c 0,0 -0.003469,0.18283 0.1726033,0.18283 h 0.84996122 c -0.007912,-0.0309 -0.0120961,-0.0636 -0.0120961,-0.0971 0,-0.21626 0.17531734,-0.39158 0.39158365,-0.39158 0.2162381,0 0.3915338,0.17532 0.3915338,0.39158 0,0.0336 -0.00422,0.066 -0.012193,0.0971 h 2.3494524 c -0.00792,-0.0309 -0.012053,-0.0636 -0.012053,-0.0971 0,-0.21626 0.1753163,-0.39158 0.3915337,-0.39158 0.2162522,0 0.3915338,0.17532 0.3915338,0.39158 0,0.0336 -0.00422,0.066 -0.012205,0.0971 l 1.3280481,-0.25632 v -1.17416 c 0,-0.14016 -0.1315991,-0.37943 -0.3777219,-0.37943 h -5.61097107 c 0,0 -0.0018426,-2.8e-4 -0.0049858,-4.6e-4 z m 0.24942861,0.3132 h 0.2193835 c 0.0472029,0 0.0854421,0.0382 0.0854421,0.0855 v 1.13368 c 0,0.0471 -0.0382501,0.0855 -0.0854421,0.0855 h -0.2193835 c -0.0472138,0 -0.08549633,-0.0382 -0.08549633,-0.0855 v -1.13368 c 0,-0.0473 0.03828259,-0.0855 0.08549633,-0.0855 z m 0.6656618,0 H 1.7507386 c 0.047214,0 0.085442,0.0382 0.085442,0.0855 v 0.37087 c 0,0.0472 -0.038228,0.0854 -0.085442,0.0854 H 0.82869072 c -0.0471921,0 -0.0854421,-0.0382 -0.0854421,-0.0854 v -0.37087 c 0,-0.0473 0.0382501,-0.0855 0.0854421,-0.0855 z m 1.28867848,0 h 0.9220466 c 0.047214,0 0.085496,0.0382 0.085496,0.0855 v 0.37087 c 0,0.0472 -0.038282,0.0854 -0.085496,0.0854 H 2.1173692 c -0.047182,0 -0.085443,-0.0382 -0.085443,-0.0854 v -0.37087 c 0,-0.0473 0.038261,-0.0855 0.085443,-0.0855 z m 1.2800582,0 H 4.319575 c 0.047182,0 0.085442,0.0382 0.085442,0.0855 v 0.37087 c 0,0.0472 -0.038261,0.0854 -0.085442,0.0854 H 3.3974274 c -0.047182,0 -0.085442,-0.0382 -0.085442,-0.0854 v -0.37087 c 0,-0.0473 0.038261,-0.0855 0.085442,-0.0855 z m 1.2767307,0 h 0.7605836 c 0.1296004,0 0.2407077,0.10879 0.2407077,0.24524 v 0.21112 c 0,0.0472 -0.038261,0.0854 -0.085442,0.0854 h -0.915847 c -0.047182,0 -0.085442,-0.0382 -0.085442,-0.0854 v -0.37087 c 0,-0.0473 0.038261,-0.0855 0.085442,-0.0855 z"
       id="path1025"
       inkscape:connector-curvature="0" />
  </g>
</svg>
