<?xml version="1.0" encoding="UTF-8" standalone="no"?>
<!-- Created with Inkscape (http://www.inkscape.org/) -->

<svg
   xmlns:dc="http://purl.org/dc/elements/1.1/"
   xmlns:cc="http://creativecommons.org/ns#"
   xmlns:rdf="http://www.w3.org/1999/02/22-rdf-syntax-ns#"
   xmlns:svg="http://www.w3.org/2000/svg"
   xmlns="http://www.w3.org/2000/svg"
   xmlns:sodipodi="http://sodipodi.sourceforge.net/DTD/sodipodi-0.dtd"
   xmlns:inkscape="http://www.inkscape.org/namespaces/inkscape"
   width="24"
   height="24"
   viewBox="0 0 6.3500001 6.3500006"
   version="1.1"
   id="svg1769"
   inkscape:version="0.92.4 5da689c313, 2019-01-14"
   sodipodi:docname="tram-working.svg">
  <defs
     id="defs1763" />
  <sodipodi:namedview
     id="base"
     pagecolor="#ffffff"
     bordercolor="#666666"
     borderopacity="1.0"
     inkscape:pageopacity="0.0"
     inkscape:pageshadow="2"
     inkscape:zoom="51.1875"
     inkscape:cx="14.999719"
     inkscape:cy="10.301105"
     inkscape:document-units="px"
     inkscape:current-layer="layer1"
     showgrid="false"
     units="px"
     fit-margin-top="1"
     fit-margin-left="1"
     fit-margin-right="1"
     fit-margin-bottom="1"
     inkscape:window-width="2560"
     inkscape:window-height="1359"
     inkscape:window-x="0"
     inkscape:window-y="0"
     inkscape:window-maximized="1" />
  <metadata
     id="metadata1766">
    <rdf:RDF>
      <cc:Work
         rdf:about="">
        <dc:format>image/svg+xml</dc:format>
        <dc:type
           rdf:resource="http://purl.org/dc/dcmitype/StillImage" />
        <dc:title></dc:title>
      </cc:Work>
    </rdf:RDF>
  </metadata>
  <g
     inkscape:label="Layer 1"
     inkscape:groupmode="layer"
     id="layer1"
     transform="translate(0.83645254,-273.96538)">
    <path
       style="fill:#000000;fill-opacity:1;fill-rule:nonzero;stroke:none;stroke-width:0.00342742"
       d="m 2.3011184,275.58115 c -0.049218,0 -0.089116,0.0399 -0.089116,0.0891 v 0.11054 l -0.5273678,0.36711 0.5132598,0.36535 H 1.77847 c 0,0 -0.047254,-0.007 -0.097501,0.0421 l -0.062105,0.0625 h -2.04756653 c 0,0 -0.1315204,-0.002 -0.1662333,0.1365 l -0.17537087,0.69963 v 0.93881 h 0.52239735 v 0.10111 h 0.30871898 c 0,0 0.01276967,0.2058 0.21553598,0.2058 0.20275596,0 0.21553598,-0.2058 0.21553598,-0.2058 h 0.29044366 c 0,0 0.0127838,0.2058 0.21553596,0.2058 0.20274229,0 0.21548589,-0.2058 0.21548589,-0.2058 h 2.2504002 c 0,0 0.01277,0.2058 0.2155362,0.2058 0.2027317,0 0.2155358,-0.2058 0.2155358,-0.2058 h 0.2904439 c 0,0 0.012754,0.2058 0.2154857,0.2058 0.202767,0 0.2155362,-0.2058 0.2155362,-0.2058 h 0.3087187 v -0.10111 h 0.5223979 v -0.93881 l -0.1753715,-0.69965 c -0.034686,-0.13884 -0.166183,-0.1365 -0.166183,-0.1365 H 3.0582304 l -0.062105,-0.0625 c -0.050211,-0.049 -0.097501,-0.0421 -0.097501,-0.0421 H 2.4792 l 0.5132599,-0.36535 -0.5273177,-0.36711 v -0.11054 c 0,-0.0491 -0.039898,-0.0891 -0.089116,-0.0891 z m 0.037454,0.20877 0.5132595,0.35797 -0.5132595,0.36535 -0.5133101,-0.36535 z m -2.52688701,1.08682 c 0.0484124,0 0.0877105,0.0393 0.0877105,0.0876 v 0.40004 c 0,0.0484 -0.0392981,0.0876 -0.0877105,0.0876 h -0.25685581 c -0.0484123,0 -0.0876603,-0.0393 -0.0876603,-0.0876 l 0.10412804,-0.40004 c 2e-8,0 0.009919,-0.0856 0.0898191,-0.0856 z m 0.34054984,0 h 0.23938371 c 0.0484401,0 0.087711,0.0393 0.087711,0.0876 v 1.23476 c 0,0.0484 -0.0392709,0.0876 -0.087711,0.0876 H 0.15223518 c -0.048426,0 -0.08766035,-0.0393 -0.08766035,-0.0876 v -1.23476 c 0,-0.0484 0.03923419,-0.0876 0.0876604,-0.0876 z m 0.52048951,0 h 0.23938399 c 0.0484227,0 0.0876598,0.0393 0.0876598,0.0876 v 1.23476 c 0,0.0484 -0.0392373,0.0876 -0.0876598,0.0876 H 0.67272469 c -0.0484122,0 -0.0877111,-0.0393 -0.0877111,-0.0876 v -1.23476 c 0,-0.0484 0.0392976,-0.0876 0.0877112,-0.0876 z m 0.54473916,0 h 0.5466473 c 0.04843,0 0.08766,0.0393 0.08766,0.0876 v 0.40004 c 0,0.0484 -0.039232,0.0876 -0.08766,0.0876 H 1.2174639 c -0.04843,0 -0.08766,-0.0393 -0.08766,-0.0876 v -0.40004 c 0,-0.0484 0.03923,-0.0876 0.08766,-0.0876 z m 0.8480359,0 h 0.5460948 c 0.04843,0 0.087711,0.0393 0.087711,0.0876 v 0.40004 c 0,0.0484 -0.039281,0.0876 -0.087711,0.0876 H 2.0654998 c -0.04843,0 -0.08766,-0.0393 -0.08766,-0.0876 v -0.40004 c 0,-0.0484 0.039232,-0.0876 0.08766,-0.0876 z m 0.8474836,0 h 0.5466469 c 0.048395,0 0.08766,0.0393 0.08766,0.0876 v 0.40004 c 0,0.0484 -0.039265,0.0876 -0.08766,0.0876 H 2.9129831 c -0.048395,0 -0.08761,-0.0393 -0.08761,-0.0876 v -0.40004 c 0,-0.0484 0.039215,-0.0876 0.08761,-0.0876 z m 0.8520523,0 h 0.2393339 c 0.048463,0 0.087711,0.0393 0.087711,0.0876 v 1.23476 c 0,0.0484 -0.039247,0.0876 -0.087711,0.0876 h -0.239334 c -0.048463,0 -0.087711,-0.0393 -0.087711,-0.0876 v -1.23476 c 0,-0.0484 0.039247,-0.0876 0.087711,-0.0876 z m 0.5204395,0 h 0.2393836 c 0.048464,0 0.087711,0.0393 0.087711,0.0876 v 1.23476 c 0,0.0484 -0.039247,0.0876 -0.087711,0.0876 h -0.239384 c -0.048395,0 -0.08766,-0.0393 -0.08766,-0.0876 v -1.23476 c 0,-0.0484 0.039265,-0.0876 0.08766,-0.0876 z m 0.5799337,0 0.1505692,0.002 c 0.079926,0 0.089869,0.0856 0.089869,0.0856 l 0.1040781,0.40004 c 0,0.0484 -0.039232,0.0876 -0.087661,0.0876 h -0.256855 c -0.048429,0 -0.08766,-0.0393 -0.08766,-0.0876 v -0.40004 c 0,-0.0484 0.039232,-0.0877 0.08766,-0.0877 z"
       id="path1041"
       inkscape:connector-curvature="0" />
  </g>
</svg>
